<?xml version="1.0" encoding="UTF-8" standalone="no"?>
<svg
   xmlns="http://www.w3.org/2000/svg"
   id="svg4615"
   version="1.1"
   viewBox="0 0 300 300"
   height="300mm"
   width="300mm">
  <defs
     id="defs4609" />
  <metadata
     id="metadata4612">
  </metadata>
  <g
     transform="translate(9.7192403,49.766435)"
     id="layer1">
    <path
       d="m 29.359375,101.98438 c -4.51332,-0.0897 -3.473989,5.64933 7.828125,23.27734 21.279489,38.48952 84.15543,111.25285 148.19922,171.50586 49.30135,46.38306 57.62661,55.86644 70.08203,79.82031 15.97081,30.71482 17.1075,43.06334 6.11523,66.46289 -34.12028,120.13007 -16.09144,245.14701 46.32618,322.90039 l 28.58007,38.53125 -7.43945,11.90039 c -6.43923,10.30065 -7.3848,17.21348 -7.04101,51.41016 0.21841,21.73013 1.14944,41.96256 2.07031,44.96094 0.92045,2.99875 3.43225,22.68001 5.58203,43.73632 2.14964,21.0567 4.85112,40.60369 6.00391,43.4375 2.59206,6.37497 9.22315,6.43447 30.73046,0.27347 21.05085,-6.03001 34.56385,-12.61518 64.69727,-31.52737 24.07294,-15.10836 36.71246,-27.9033 43.01172,-43.54102 2.97131,-7.37616 4.99514,-8.23206 15.27148,-6.44922 6.51534,1.13004 15.39694,4.1389 19.73633,6.68555 14.18389,8.326 56.21149,12.49084 84.38477,8.36524 14.02469,-2.05376 29.04954,-5.81856 33.38867,-8.36524 4.33939,-2.54665 13.22095,-5.55501 19.73633,-6.68555 10.27646,-1.78284 12.30005,-0.92694 15.27148,6.44922 11.25857,27.94938 67.41854,65.51461 114.78906,76.78319 23.35711,5.5567 24.57584,4.3556 27.77539,-27.38866 1.23368,-12.23954 3.82413,-34.0392 5.75782,-48.44336 1.93326,-14.40381 3.65685,-42.31355 3.82617,-62.02148 0.26426,-30.3772 -0.81849,-37.64049 -7.11133,-47.70703 l -7.42187,-11.87305 28.58007,-38.53125 c 76.04656,-103.68215 74.90226,-226.05981 42.72282,-324.10151 -10.99216,-23.39955 -6.25233,-34.54695 9.71859,-65.26177 12.45543,-23.95387 20.78082,-33.43725 70.08203,-79.82031 64.04382,-60.25301 126.91972,-133.01634 148.19922,-171.50586 14.5461,-26.418356 14.5929,-30.127264 -17.6602,-11.58594 -15.6099,8.1494 -50.148,25.21243 -76.7519,37.91797 -26.60435,12.70541 -50.23035,24.48673 -52.50196,26.18164 -2.27105,1.6949 -13.992,7.59208 -26.04688,13.10352 -12.05484,5.51156 -41.94604,21.34444 -66.42578,35.18554 -24.47973,13.8411 -56.829,31.54772 -71.88672,39.34766 -18.45059,9.55767 -30.61996,18.59698 -37.32031,27.72266 -5.46818,7.44738 -11.23454,13.54101 -12.81445,13.54101 -1.57981,0 -13.13462,-4.96343 -25.67774,-11.03125 -12.54327,-6.06769 -23.13289,-11.09931 -23.53125,-11.18945 -0.39878,-0.0863 -5.11558,-14.66969 -10.48047,-32.40625 -15.24722,-50.40536 -29.58982,-76.65586 -57.17187,-104.64258 -13.38871,-13.58486 -25.88025,-24.69922 -27.75977,-24.69922 -1.87993,0 -8.22437,3.35332 -14.09961,7.45313 L 568,137.61523 557.31836,130.16016 c -5.87539,-4.09981 -12.22174,-7.45313 -14.10156,-7.45313 -1.87979,0 -14.37121,11.11436 -27.75977,24.69922 -27.58231,27.98672 -41.92481,54.23722 -57.17187,104.64258 -5.36504,17.73656 -10.08211,32.31611 -10.48047,32.40625 -0.39893,0.0861 -10.98798,5.12176 -23.53125,11.18945 -12.54328,6.06782 -24.09794,11.03125 -25.67774,11.03125 -1.57993,0 -7.34629,-6.09363 -12.81445,-13.54101 -6.70049,-9.12568 -18.86958,-18.16499 -37.32031,-27.72266 -15.05758,-7.79994 -47.40517,-25.50656 -71.88477,-39.34766 -24.47973,-13.8411 -54.37286,-29.67398 -66.42773,-35.18554 -12.05488,-5.51144 -23.77554,-11.40862 -26.04688,-13.10352 -2.27119,-1.69491 -25.89767,-13.47623 -52.50195,-26.18164 C 104.99547,138.88821 70.457482,121.82518 54.847656,113.67578 43.938675,107.9924 33.872695,102.07396 29.359375,101.98438 Z m 22.960937,22.67187 c 4.816786,0.2281 44.210549,20.56806 71.703128,37.21094 12.90425,7.81165 36.45576,21.47504 52.33789,30.36328 83.66985,46.82472 89.11829,50.73028 114.94726,82.42383 43.11123,52.9 48.00623,72.31462 25.10547,99.58593 -7.34537,8.74738 -14.47169,17.18766 -15.83594,18.75586 -1.3636,1.56808 -6.60913,-5.66698 -11.6582,-16.07617 -5.04907,-10.40931 -14.49389,-26.21275 -20.98633,-35.11914 -14.47354,-19.85522 -55.79771,-59.10702 -82.54687,-78.40625 -10.91901,-7.87783 -29.70872,-23.97488 -41.75391,-35.77148 -23.79433,-23.30349 -91.800779,-99.4109 -91.800779,-102.73633 0,-0.17062 0.167171,-0.24568 0.488281,-0.23047 z m 1031.359388,0 c 0.3211,-0.0152 0.4883,0.0598 0.4883,0.23047 0,3.32543 -68.0065,79.43284 -91.80081,102.73633 -12.04505,11.7966 -30.83504,27.89365 -41.75391,35.77148 -26.74904,19.29923 -68.07317,58.55103 -82.54687,78.40625 -6.49244,8.90639 -15.87172,24.57779 -20.8418,34.82422 -4.96993,10.24643 -9.32309,18.62399 -9.67383,18.61719 -0.35089,-0.007 -7.54106,-8.4504 -15.97851,-18.76172 -24.91862,-30.45292 -21.00738,-47.68026 23.11914,-101.82617 25.82853,-31.69355 31.27759,-35.59911 114.94726,-82.42383 15.88199,-8.88824 39.43328,-22.55163 52.33793,-30.36328 27.4927,-16.64288 66.8863,-36.98284 71.7031,-37.21094 z M 541.92969,153.0332 c 5.69929,-0.41655 6.63035,6.41868 -1.71289,20.12305 -16.92333,27.79796 -30.77598,56.13905 -38.61914,79.00977 -6.60201,19.25132 -8.84724,22.283 -17.1836,23.19336 -9.45517,1.03258 -9.54235,0.85127 -6.26172,-12.92969 5.78249,-24.29072 28.92,-76.13381 40.6543,-91.0918 9.35323,-11.92285 18.09426,-17.93714 23.12305,-18.30469 z m 52.14258,0 c 5.02898,0.36764 13.76816,6.38214 23.12109,18.30469 11.6928,14.90507 34.86534,66.77574 40.60742,90.89649 3.10708,13.05169 2.83531,13.77929 -5.14648,13.77929 -10.0385,0 -11.18602,-1.52 -18.35938,-24.31836 -5.77674,-18.36054 -21.87174,-51.17967 -38.51758,-78.53906 -8.33801,-13.70444 -7.40459,-20.5397 -1.70507,-20.12305 z M 568,171.04883 c 1.81308,0 3.62696,1.39575 6.89062,4.18359 8.17713,6.98461 34.28061,62.97214 37.85547,81.19336 l 2.50586,12.77539 h -18.21093 c -18.16574,0.47435 -37.8242,5.59058 -58.08008,0 h -18.21289 l 2.50781,-12.77539 c 3.5746,-18.22122 29.67651,-74.20875 37.85352,-81.19336 3.26379,-2.78784 5.07754,-4.18359 6.89062,-4.18359 z m -252.66211,98.15234 c 20.59762,2.37014 47.80242,24.99633 61.35547,41.83789 0,2.05261 -3.65429,8.79921 -8.12109,14.99219 -9.90483,13.73204 -16.16063,14.31057 -20.95118,1.9375 -5.20159,-13.43524 -5.53225,-14.0184 -21.21875,-37.47461 -7.83185,-11.7111 -12.81137,-21.29297 -11.06445,-21.29297 z m 505.32422,0 c 1.74667,0 -3.23049,9.58187 -11.0625,21.29297 -15.68648,23.45621 -16.01898,24.03937 -21.2207,37.47461 -1.99491,5.15283 -5.69591,9.35855 -8.22657,9.3457 -4.93285,-0.025 -20.8457,-20.08241 -20.8457,-26.27539 3.76044,-21.5495 44.26463,-31.80692 61.35547,-41.83789 z m -86.125,64.13284 c 45.48336,29.0825 50.92841,33.65452 74.62695,62.65821 30.51489,37.34597 46.54167,71.01188 52.9375,111.20312 10.09995,93.88031 2.11379,166.04216 -50.23242,237.67392 -0.567,0.90108 -1.13133,1.80383 -1.70117,2.70313 -2.32253,3.18263 -4.80839,6.24702 -7.52735,9.09765 -1.09051,1.59657 -2.21897,3.16344 -3.44335,4.66211 -0.0928,0.11353 -0.31449,0.35322 -0.44922,0.50781 l 0.25586,0.13477 -13.53125,17.04492 c -7.44208,9.37508 -21.09505,24.59672 -30.33985,33.82617 -9.2448,9.22987 -19.80359,20.11926 -23.46289,24.19922 -11.19118,12.47724 -76.14397,54.74971 -92.4043,60.13867 -47.56539,22.31609 -87.25394,23.39255 -126.6914,5.46485 -7.65324,-1.85677 -19.02204,-5.8262 -25.26563,-8.82227 -14.96961,-7.18329 -84.42184,-54.80394 -85.95703,-58.9375 -0.65852,-1.77358 -9.37441,-11.34845 -19.36914,-21.27734 -18.31692,-17.15465 -32.55736,-39.74978 -50.7539,-55.30469 -0.31782,-0.28082 -0.56967,-0.62816 -0.85547,-0.94141 -1.53338,-1.68052 -3.12226,-3.31076 -4.60157,-5.03906 -0.12141,-0.14185 -0.22173,-0.30068 -0.33203,-0.45117 -51.52274,-67.03792 -62.51022,-167.0997 -51.54101,-244.67969 6.39585,-40.19124 22.42248,-73.85715 52.9375,-111.20312 23.69857,-29.00369 29.14358,-33.57571 74.62695,-62.65821 30.12322,-19.26098 43.4727,-25.5016 68.58203,-32.05859 92.45704,-19.17969 192.48446,-13.19593 264.49219,32.0585 z m -373.9668,495.92771 c 0.80281,0.007 1.57589,0.14318 2.31836,0.41211 9.70538,3.51511 10.36231,10.6079 2.58789,27.95703 -4.01361,8.95687 -8.62319,19.35209 -10.24218,23.09961 -1.61909,3.74751 -4.49088,10.58494 -6.38282,15.19336 -3.39888,8.27958 -3.46896,8.24274 -5.84765,-2.98242 -5.14853,-24.29704 -2.83408,-47.13371 5.72656,-56.52735 4.34113,-4.76282 8.36099,-7.18175 11.83984,-7.15234 z m 414.85938,0 c 3.47885,-0.0295 7.50066,2.389 11.84179,7.15234 6.66021,7.3087 8.06743,12.74274 7.77149,30.02735 -0.19778,11.6064 -1.53572,24.93475 -2.97266,29.61914 l -2.61328,8.51757 -2.66797,-8.51757 c -1.46766,-4.68439 -4.08616,-11.58257 -5.81836,-15.33008 -19.2263,-41.59491 -20.00507,-46.65773 -7.85937,-51.05664 0.74245,-0.26893 1.51555,-0.40529 2.31836,-0.41211 z m -384.64453,27.16406 c 1.70275,0.0898 3.4134,1.64759 6.36718,4.43555 3.7776,3.5653 13.30921,11.02707 21.17969,16.58203 9.93313,7.12993 28.11965,15.80765 32.12109,27.45898 1.74528,6.5633 -0.46119,12.98066 -8.5625,24.89649 -14.7209,21.6525 -23.63825,29.00868 -47.8457,39.46875 -37.97525,16.40938 -48.60815,16.39304 -46.4375,-25.77149 2.09739,-40.74187 21.12054,-65.43918 34.03516,-79.625 4.77806,-5.24829 6.95332,-7.56077 9.14258,-7.44531 z m 354.43164,0 c 2.18928,-0.11546 4.36256,2.19702 9.14062,7.44531 12.87561,14.14292 30.93609,40.85393 33.01563,81.16993 2.16465,41.96485 -7.96283,40.24782 -42.95899,25.2539 -26.53716,-11.36961 -35.29468,-18.41866 -50.30468,-40.49609 -8.10074,-11.91583 -10.30778,-18.33319 -8.5625,-24.89649 3.32116,-12.02483 21.11053,-18.70593 32.12109,-27.45898 7.87075,-5.55496 17.40224,-13.01673 21.17969,-16.58203 2.95385,-2.78796 4.66636,-4.34575 6.36914,-4.43555 z"
       style="fill:#000000;stroke-width:3.50674224"
       transform="matrix(0.26458333,0,0,0.26458333,-9.7192403,-49.766435)"
       id="path4513" />
  </g>
  <path
     style="opacity:1;fill:none;fill-opacity:1;stroke:#000000;stroke-width:5.29166651;stroke-miterlimit:4;stroke-dasharray:none;stroke-opacity:1"
     d="m 218.64407,153.70419 c 0,22.57278 -11.45719,41.87144 -28.2759,55.15618 -11.42837,9.02703 -25.2546,19.21815 -40.59289,19.21815 -16.41332,-1e-5 -29.45874,-10.31092 -41.26966,-20.49381 C 93.035979,194.24742 81.355933,175.20194 81.355934,153.70419 81.355936,115.79312 112.08893,85.060127 150,85.060127 c 37.91107,-2e-6 68.64407,30.732993 68.64407,68.644063 z"
     id="path815" />
  <circle
     style="opacity:1;fill:none;fill-opacity:1;stroke:#000000;stroke-width:5.29166651;stroke-miterlimit:4;stroke-dasharray:none;stroke-opacity:1"
     id="path819-3-0"
     cx="150"
     cy="154.72702"
     r="9.1587276" />
</svg>
